Coordinates
version=1
nRows=32
nColumns=12
inDegrees=yes

Units are S.I. units (second, meters, Newtons, ...)
Angles are in degrees

endheader
time	SC_y	SC_z	SC_x	AC_y	AC_z	AC_x	GH_y	GH_z	GH_yy	EL_x	PS_y
       0.0              -39.39          25.38          73.15          66.52         -7.068          8.954          131.0          77.36         -38.37          66.48          77.07
  0.005038              -39.39          25.38          73.15          66.52         -7.068          8.954          131.0          77.35         -38.34          66.47          77.07
   0.01008              -39.39          25.38          73.15          66.51         -7.068          8.954          131.0          77.34         -38.31          66.46          77.07
   0.01512              -39.39          25.38          73.15          66.51         -7.067          8.953          130.9          77.34         -38.28          66.45          77.08
   0.02015              -39.38          25.38          73.15           66.5         -7.067          8.953          130.9          77.33         -38.25          66.44          77.08
   0.02519              -39.38          25.38          73.16           66.5         -7.066          8.953          130.8          77.32         -38.21          66.43          77.08
   0.03023              -39.38          25.38          73.16           66.5         -7.066          8.953          130.8          77.31         -38.18          66.42          77.08
   0.03527              -39.37          25.38          73.16          66.49         -7.065          8.952          130.7           77.3         -38.14           66.4          77.08
   0.04031              -39.37          25.38          73.16          66.48         -7.064          8.952          130.7          77.29         -38.09          66.39          77.08
   0.04535              -39.36          25.38          73.16          66.48         -7.064          8.952          130.6          77.27         -38.05          66.38          77.08
   0.05038              -39.36          25.38          73.16          66.47         -7.063          8.951          130.5          77.26          -38.0          66.36          77.08
   0.05542              -39.35          25.39          73.17          66.46         -7.062          8.951          130.5          77.25         -37.94          66.34          77.08
   0.06046              -39.35          25.39          73.17          66.46         -7.061          8.951          130.4          77.23         -37.89          66.32          77.08
    0.0655              -39.34          25.39          73.17          66.45         -7.061           8.95          130.3          77.21         -37.82          66.31          77.09
   0.07054              -39.34          25.39          73.17          66.44          -7.06           8.95          130.2           77.2         -37.76          66.28          77.09
   0.07558              -39.33          25.39          73.18          66.43         -7.059          8.949          130.1          77.18         -37.68          66.26          77.09
   0.08061              -39.32          25.39          73.18          66.42         -7.057          8.948          130.0          77.16          -37.6          66.24          77.09
   0.08565              -39.31          25.39          73.18          66.41         -7.056          8.948          129.9          77.13         -37.52          66.21          77.09
   0.09069              -39.31          25.39          73.19           66.4         -7.055          8.947          129.8          77.11         -37.42          66.18          77.09
   0.09573               -39.3          25.39          73.19          66.38         -7.053          8.946          129.7          77.08         -37.32          66.15           77.1
    0.1008              -39.29          25.39           73.2          66.37         -7.052          8.946          129.5          77.05          -37.2          66.11           77.1
    0.1058              -39.27          25.39           73.2          66.35          -7.05          8.945          129.3          77.02         -37.08          66.07           77.1
    0.1108              -39.26          25.39          73.21          66.34         -7.048          8.944          129.2          76.98         -36.94          66.03          77.11
    0.1159              -39.25          25.39          73.21          66.32         -7.046          8.942          129.0          76.94         -36.78          65.98          77.11
    0.1209              -39.23          25.39          73.22          66.29         -7.043          8.941          128.7          76.89         -36.61          65.92          77.11
     0.126              -39.21           25.4          73.23          66.27          -7.04           8.94          128.5          76.84         -36.42          65.86          77.12
     0.131              -39.19           25.4          73.24          66.24         -7.037          8.938          128.2          76.78         -36.21           65.8          77.12
     0.136              -39.17           25.4          73.25          66.21         -7.034          8.937          127.9          76.72         -35.97          65.72          77.13
    0.1411              -39.15           25.4          73.26          66.18          -7.03          8.935          127.5          76.65          -35.7          65.64          77.13
    0.1461              -39.12           25.4          73.27          66.14         -7.026          8.932          127.1          76.57         -35.39          65.54          77.14
    0.1512              -39.09          25.41          73.29          66.09         -7.021           8.93          126.7          76.47         -35.04          65.43          77.15
    0.1562              -39.05          25.41           73.3          66.04         -7.015          8.927          126.1          76.37         -34.64           65.3          77.16
